<svg xmlns="http://www.w3.org/2000/svg" xmlns:xlink="http://www.w3.org/1999/xlink" viewBox="0 0 434.02 485.77">
    <defs>
        <style>
            .cls-1{isolation:isolate;}.cls-10,.cls-2,.cls-3,.cls-4,.cls-5,.cls-6,.cls-7,.cls-8,.cls-9{fill-rule:evenodd;}.cls-2{fill:url(#Áåçûìÿííûé_ãðàäèåíò_3);}.cls-3{fill:#923b51;opacity:0.4;}.cls-13,.cls-18,.cls-19,.cls-20,.cls-21,.cls-25,.cls-26,.cls-29,.cls-31,.cls-33,.cls-34,.cls-35,.cls-4,.cls-40,.cls-42,.cls-5,.cls-50,.cls-6,.cls-64,.cls-66,.cls-67,.cls-68,.cls-69,.cls-7,.cls-70,.cls-71,.cls-74,.cls-8,.cls-9{opacity:0.5;}.cls-11,.cls-13,.cls-18,.cls-19,.cls-20,.cls-21,.cls-25,.cls-26,.cls-29,.cls-31,.cls-33,.cls-34,.cls-35,.cls-4,.cls-40,.cls-42,.cls-5,.cls-50,.cls-6,.cls-64,.cls-66,.cls-67,.cls-68,.cls-69,.cls-7,.cls-70,.cls-71,.cls-74,.cls-8,.cls-9{mix-blend-mode:multiply;}.cls-4{fill:url(#Áåçûìÿííûé_ãðàäèåíò_2);}.cls-5{fill:url(#Áåçûìÿííûé_ãðàäèåíò_2-2);}.cls-6{fill:url(#Áåçûìÿííûé_ãðàäèåíò_2-3);}.cls-7{fill:url(#Áåçûìÿííûé_ãðàäèåíò_2-4);}.cls-8{fill:url(#Áåçûìÿííûé_ãðàäèåíò_2-5);}.cls-9{fill:url(#Áåçûìÿííûé_ãðàäèåíò_2-6);}.cls-10{opacity:0.6;fill:url(#Áåçûìÿííûé_ãðàäèåíò_479);}.cls-10,.cls-48,.cls-83{mix-blend-mode:screen;}.cls-11{opacity:0.8;fill:url(#Áåçûìÿííûé_ãðàäèåíò_9);}.cls-12{fill:url(#Áåçûìÿííûé_ãðàäèåíò_11);}.cls-13{fill:url(#Áåçûìÿííûé_ãðàäèåíò_9-2);}.cls-14{fill:url(#Áåçûìÿííûé_ãðàäèåíò_10);}.cls-15{fill:url(#Áåçûìÿííûé_ãðàäèåíò_10-2);}.cls-16{fill:url(#Áåçûìÿííûé_ãðàäèåíò_10-3);}.cls-17{fill:#fff;}.cls-18{fill:url(#Áåçûìÿííûé_ãðàäèåíò_9-3);}.cls-19{fill:url(#Áåçûìÿííûé_ãðàäèåíò_9-4);}.cls-20{fill:url(#Áåçûìÿííûé_ãðàäèåíò_9-5);}.cls-21{fill:url(#Áåçûìÿííûé_ãðàäèåíò_9-6);}.cls-22{fill:url(#Áåçûìÿííûé_ãðàäèåíò_11-2);}.cls-23{fill:url(#Áåçûìÿííûé_ãðàäèåíò_11-3);}.cls-24{fill:url(#Áåçûìÿííûé_ãðàäèåíò_11-4);}.cls-25{fill:url(#Áåçûìÿííûé_ãðàäèåíò_9-7);}.cls-26{fill:url(#Áåçûìÿííûé_ãðàäèåíò_9-8);}.cls-27{fill:url(#Áåçûìÿííûé_ãðàäèåíò_10-4);}.cls-28{fill:url(#Áåçûìÿííûé_ãðàäèåíò_10-5);}.cls-29{fill:url(#Áåçûìÿííûé_ãðàäèåíò_9-9);}.cls-30{fill:url(#Áåçûìÿííûé_ãðàäèåíò_10-6);}.cls-31{fill:url(#Áåçûìÿííûé_ãðàäèåíò_9-10);}.cls-32{fill:url(#Áåçûìÿííûé_ãðàäèåíò_10-7);}.cls-33{fill:url(#Áåçûìÿííûé_ãðàäèåíò_9-11);}.cls-34{fill:url(#Áåçûìÿííûé_ãðàäèåíò_9-12);}.cls-35{fill:url(#Áåçûìÿííûé_ãðàäèåíò_9-13);}.cls-36{fill:url(#Áåçûìÿííûé_ãðàäèåíò_9-14);}.cls-37{fill:url(#Áåçûìÿííûé_ãðàäèåíò_9-15);}.cls-38{fill:url(#Áåçûìÿííûé_ãðàäèåíò_9-16);}.cls-39{fill:url(#Áåçûìÿííûé_ãðàäèåíò_9-17);}.cls-40{fill:url(#Áåçûìÿííûé_ãðàäèåíò_9-18);}.cls-41{fill:url(#Áåçûìÿííûé_ãðàäèåíò_8);}.cls-42{fill:url(#Áåçûìÿííûé_ãðàäèåíò_9-19);}.cls-43{fill:url(#Áåçûìÿííûé_ãðàäèåíò_55);}.cls-44{fill:url(#Áåçûìÿííûé_ãðàäèåíò_8-2);}.cls-45{fill:url(#Áåçûìÿííûé_ãðàäèåíò_8-3);}.cls-46{fill:url(#Áåçûìÿííûé_ãðàäèåíò_8-4);}.cls-47{fill:url(#Áåçûìÿííûé_ãðàäèåíò_8-5);}.cls-48{fill:url(#Áåçûìÿííûé_ãðàäèåíò_187);}.cls-49{fill:url(#Áåçûìÿííûé_ãðàäèåíò_55-2);}.cls-50{fill:url(#Áåçûìÿííûé_ãðàäèåíò_9-20);}.cls-51{fill:url(#Áåçûìÿííûé_ãðàäèåíò_55-3);}.cls-52{fill:url(#Áåçûìÿííûé_ãðàäèåíò_8-6);}.cls-53{fill:url(#Áåçûìÿííûé_ãðàäèåíò_8-7);}.cls-54{fill:url(#Áåçûìÿííûé_ãðàäèåíò_8-8);}.cls-55{fill:#ffec2f;}.cls-56{fill:url(#Áåçûìÿííûé_ãðàäèåíò_55-4);}.cls-57{fill:url(#Áåçûìÿííûé_ãðàäèåíò_55-5);}.cls-58{fill:url(#Áåçûìÿííûé_ãðàäèåíò_55-6);}.cls-59{fill:url(#Áåçûìÿííûé_ãðàäèåíò_55-7);}.cls-60{fill:url(#Áåçûìÿííûé_ãðàäèåíò_55-8);}.cls-61{fill:url(#Áåçûìÿííûé_ãðàäèåíò_55-9);}.cls-62{fill:url(#Áåçûìÿííûé_ãðàäèåíò_55-10);}.cls-63{fill:url(#Áåçûìÿííûé_ãðàäèåíò_55-11);}.cls-64{fill:url(#Áåçûìÿííûé_ãðàäèåíò_9-21);}.cls-65{fill:url(#Áåçûìÿííûé_ãðàäèåíò_55-12);}.cls-66{fill:url(#Áåçûìÿííûé_ãðàäèåíò_9-22);}.cls-67{fill:url(#Áåçûìÿííûé_ãðàäèåíò_9-23);}.cls-68{fill:url(#Áåçûìÿííûé_ãðàäèåíò_9-24);}.cls-69{fill:url(#Áåçûìÿííûé_ãðàäèåíò_9-25);}.cls-70{fill:url(#Áåçûìÿííûé_ãðàäèåíò_9-26);}.cls-71{fill:url(#Áåçûìÿííûé_ãðàäèåíò_9-27);}.cls-72{fill:url(#Áåçûìÿííûé_ãðàäèåíò_11-5);}.cls-73{fill:url(#Áåçûìÿííûé_ãðàäèåíò_10-8);}.cls-74{fill:url(#Áåçûìÿííûé_ãðàäèåíò_9-28);}.cls-75{fill:url(#Áåçûìÿííûé_ãðàäèåíò_55-13);}.cls-76{fill:url(#Áåçûìÿííûé_ãðàäèåíò_8-9);}.cls-77{fill:url(#Áåçûìÿííûé_ãðàäèåíò_8-10);}.cls-78{fill:url(#Áåçûìÿííûé_ãðàäèåíò_8-11);}.cls-79{fill:url(#Áåçûìÿííûé_ãðàäèåíò_8-12);}.cls-80{fill:url(#Áåçûìÿííûé_ãðàäèåíò_8-13);}.cls-81{fill:url(#Áåçûìÿííûé_ãðàäèåíò_8-14);}.cls-82{fill:url(#Áåçûìÿííûé_ãðàäèåíò_9-29);}.cls-83{fill:url(#Áåçûìÿííûé_ãðàäèåíò_187-2);}.cls-84{fill:url(#Áåçûìÿííûé_ãðàäèåíò_11-6);}.cls-85{fill:url(#Áåçûìÿííûé_ãðàäèåíò_10-9);}.cls-86{fill:url(#Áåçûìÿííûé_ãðàäèåíò_11-7);}
        </style>
        <linearGradient id="Áåçûìÿííûé_ãðàäèåíò_3" x1="215.22" y1="307.34" x2="247.78" y2="471.89"
                        gradientUnits="userSpaceOnUse">
            <stop offset="0" stop-color="#271221"/>
            <stop offset="1" stop-color="#431920"/>
        </linearGradient>
        <linearGradient id="Áåçûìÿííûé_ãðàäèåíò_2" x1="41.72" y1="333.12" x2="154.52" y2="333.12"
                        gradientUnits="userSpaceOnUse">
            <stop offset="0" stop-color="#3f3750"/>
            <stop offset="1" stop-color="#281e2f"/>
        </linearGradient>
        <linearGradient id="Áåçûìÿííûé_ãðàäèåíò_2-2" x1="65.01" y1="395.75" x2="116.65" y2="395.75"
                        xlink:href="#Áåçûìÿííûé_ãðàäèåíò_2"/>
        <linearGradient id="Áåçûìÿííûé_ãðàäèåíò_2-3" x1="113.94" y1="407.68" x2="192.87" y2="407.68"
                        xlink:href="#Áåçûìÿííûé_ãðàäèåíò_2"/>
        <linearGradient id="Áåçûìÿííûé_ãðàäèåíò_2-4" x1="157.75" y1="380.66" x2="401.52" y2="380.66"
                        xlink:href="#Áåçûìÿííûé_ãðàäèåíò_2"/>
        <linearGradient id="Áåçûìÿííûé_ãðàäèåíò_2-5" x1="192.87" y1="458.82" x2="235.24" y2="458.82"
                        xlink:href="#Áåçûìÿííûé_ãðàäèåíò_2"/>
        <linearGradient id="Áåçûìÿííûé_ãðàäèåíò_2-6" x1="43.72" y1="380.66" x2="401.56" y2="380.66"
                        xlink:href="#Áåçûìÿííûé_ãðàäèåíò_2"/>
        <linearGradient id="Áåçûìÿííûé_ãðàäèåíò_479" x1="99.55" y1="534.05" x2="193.68" y2="362.59"
                        gradientUnits="userSpaceOnUse">
            <stop offset="0" stop-color="#3d56fc"/>
            <stop offset="1"/>
        </linearGradient>
        <linearGradient id="Áåçûìÿííûé_ãðàäèåíò_9" x1="220.21" y1="412.44" x2="231.01" y2="363.42"
                        gradientUnits="userSpaceOnUse">
            <stop offset="0" stop-color="#b81723"/>
            <stop offset="1" stop-color="#4f0069"/>
        </linearGradient>
        <linearGradient id="Áåçûìÿííûé_ãðàäèåíò_11" x1="211.29" y1="107.93" x2="226.87" y2="231.31"
                        gradientUnits="userSpaceOnUse">
            <stop offset="0" stop-color="#b41922"/>
            <stop offset="1" stop-color="#45003d"/>
        </linearGradient>
        <linearGradient id="Áåçûìÿííûé_ãðàäèåíò_9-2" x1="185.44" y1="241.62" x2="215.52" y2="238.39"
                        xlink:href="#Áåçûìÿííûé_ãðàäèåíò_9"/>
        <linearGradient id="Áåçûìÿííûé_ãðàäèåíò_10" x1="284.38" y1="159.1" x2="279.75" y2="246.91"
                        gradientUnits="userSpaceOnUse">
            <stop offset="0" stop-color="#8d092d"/>
            <stop offset="1" stop-color="#fc5925"/>
        </linearGradient>
        <linearGradient id="Áåçûìÿííûé_ãðàäèåíò_10-2" x1="198.05" y1="342.01" x2="176.24" y2="261"
                        xlink:href="#Áåçûìÿííûé_ãðàäèåíò_10"/>
        <linearGradient id="Áåçûìÿííûé_ãðàäèåíò_10-3" x1="268.96" y1="284.47" x2="240.73" y2="151.05"
                        xlink:href="#Áåçûìÿííûé_ãðàäèåíò_10"/>
        <linearGradient id="Áåçûìÿííûé_ãðàäèåíò_9-3" x1="329.03" y1="157.79" x2="337.27" y2="156.91"
                        xlink:href="#Áåçûìÿííûé_ãðàäèåíò_9"/>
        <linearGradient id="Áåçûìÿííûé_ãðàäèåíò_9-4" x1="251.54" y1="166.44" x2="410.51" y2="149.37"
                        xlink:href="#Áåçûìÿííûé_ãðàäèåíò_9"/>
        <linearGradient id="Áåçûìÿííûé_ãðàäèåíò_9-5" x1="110.49" y1="269.41" x2="259.43" y2="253.42"
                        xlink:href="#Áåçûìÿííûé_ãðàäèåíò_9"/>
        <linearGradient id="Áåçûìÿííûé_ãðàäèåíò_9-6" x1="205.15" y1="200.46" x2="203.18" y2="237.7"
                        xlink:href="#Áåçûìÿííûé_ãðàäèåíò_9"/>
        <linearGradient id="Áåçûìÿííûé_ãðàäèåíò_11-2" x1="310.02" y1="316.5" x2="320.41" y2="274.13"
                        xlink:href="#Áåçûìÿííûé_ãðàäèåíò_11"/>
        <linearGradient id="Áåçûìÿííûé_ãðàäèåíò_11-3" x1="201.07" y1="311.9" x2="192.76" y2="285.31"
                        xlink:href="#Áåçûìÿííûé_ãðàäèåíò_11"/>
        <linearGradient id="Áåçûìÿííûé_ãðàäèåíò_11-4" x1="253.06" y1="371.66" x2="196.56" y2="342.58"
                        xlink:href="#Áåçûìÿííûé_ãðàäèåíò_11"/>
        <linearGradient id="Áåçûìÿííûé_ãðàäèåíò_9-7" x1="406.64" y1="299.91" x2="433.96" y2="243.15"
                        xlink:href="#Áåçûìÿííûé_ãðàäèåíò_9"/>
        <linearGradient id="Áåçûìÿííûé_ãðàäèåíò_9-8" x1="385.31" y1="271.04" x2="388.2" y2="265.03"
                        xlink:href="#Áåçûìÿííûé_ãðàäèåíò_9"/>
        <linearGradient id="Áåçûìÿííûé_ãðàäèåíò_10-4" x1="340.65" y1="303.62" x2="318.84" y2="222.61"
                        xlink:href="#Áåçûìÿííûé_ãðàäèåíò_10"/>
        <linearGradient id="Áåçûìÿííûé_ãðàäèåíò_10-5" x1="269.59" y1="302.19" x2="293.41" y2="267.29"
                        xlink:href="#Áåçûìÿííûé_ãðàäèåíò_10"/>
        <linearGradient id="Áåçûìÿííûé_ãðàäèåíò_9-9" x1="203.62" y1="252.07" x2="24.07" y2="401.62"
                        xlink:href="#Áåçûìÿííûé_ãðàäèåíò_9"/>
        <linearGradient id="Áåçûìÿííûé_ãðàäèåíò_10-6" x1="212.78" y1="338.05" x2="190.97" y2="257.04"
                        xlink:href="#Áåçûìÿííûé_ãðàäèåíò_10"/>
        <linearGradient id="Áåçûìÿííûé_ãðàäèåíò_9-10" x1="164.32" y1="275.52" x2="178.3" y2="251.93"
                        xlink:href="#Áåçûìÿííûé_ãðàäèåíò_9"/>
        <linearGradient id="Áåçûìÿííûé_ãðàäèåíò_10-7" x1="120.09" y1="411" x2="137.54" y2="238.39"
                        xlink:href="#Áåçûìÿííûé_ãðàäèåíò_10"/>
        <linearGradient id="Áåçûìÿííûé_ãðàäèåíò_9-11" x1="24.6" y1="338.78" x2="46.71" y2="292.85"
                        xlink:href="#Áåçûìÿííûé_ãðàäèåíò_9"/>
        <linearGradient id="Áåçûìÿííûé_ãðàäèåíò_9-12" x1="124.68" y1="537.64" x2="246.64" y2="-252.31"
                        xlink:href="#Áåçûìÿííûé_ãðàäèåíò_9"/>
        <linearGradient id="Áåçûìÿííûé_ãðàäèåíò_9-13" x1="217.61" y1="460.2" x2="293.47" y2="-31.11"
                        xlink:href="#Áåçûìÿííûé_ãðàäèåíò_9"/>
        <linearGradient id="Áåçûìÿííûé_ãðàäèåíò_9-14" x1="369.2" y1="278.48" x2="384.68" y2="178.17"
                        xlink:href="#Áåçûìÿííûé_ãðàäèåíò_9"/>
        <linearGradient id="Áåçûìÿííûé_ãðàäèåíò_9-15" x1="401.31" y1="263.2" x2="407.92" y2="220.36"
                        xlink:href="#Áåçûìÿííûé_ãðàäèåíò_9"/>
        <linearGradient id="Áåçûìÿííûé_ãðàäèåíò_9-16" x1="305.23" y1="294.4" x2="329" y2="140.47"
                        xlink:href="#Áåçûìÿííûé_ãðàäèåíò_9"/>
        <linearGradient id="Áåçûìÿííûé_ãðàäèåíò_9-17" x1="270.65" y1="261.38" x2="278.08" y2="213.26"
                        xlink:href="#Áåçûìÿííûé_ãðàäèåíò_9"/>
        <linearGradient id="Áåçûìÿííûé_ãðàäèåíò_9-18" x1="233.93" y1="211.24" x2="294.58" y2="204.73"
                        xlink:href="#Áåçûìÿííûé_ãðàäèåíò_9"/>
        <linearGradient id="Áåçûìÿííûé_ãðàäèåíò_8" x1="217.39" y1="130.31" x2="235.68" y2="77.6"
                        gradientUnits="userSpaceOnUse">
            <stop offset="0" stop-color="#fcba01"/>
            <stop offset="0.23" stop-color="#fcbf01"/>
            <stop offset="0.48" stop-color="#fdcc01"/>
            <stop offset="0.74" stop-color="#fee201"/>
            <stop offset="1" stop-color="#ffff01"/>
        </linearGradient>
        <linearGradient id="Áåçûìÿííûé_ãðàäèåíò_9-19" x1="254.39" y1="192.81" x2="252.62" y2="226.36"
                        xlink:href="#Áåçûìÿííûé_ãðàäèåíò_9"/>
        <linearGradient id="Áåçûìÿííûé_ãðàäèåíò_55" x1="209.5" y1="267.12" x2="206" y2="161.86"
                        gradientUnits="userSpaceOnUse">
            <stop offset="0" stop-color="#fca803"/>
            <stop offset="0.99" stop-color="#fc0c00"/>
        </linearGradient>
        <linearGradient id="Áåçûìÿííûé_ãðàäèåíò_8-2" x1="184.96" y1="156.92" x2="191.4" y2="138.35"
                        xlink:href="#Áåçûìÿííûé_ãðàäèåíò_8"/>
        <linearGradient id="Áåçûìÿííûé_ãðàäèåíò_8-3" x1="188.67" y1="197.87" x2="191.34" y2="190.18"
                        xlink:href="#Áåçûìÿííûé_ãðàäèåíò_8"/>
        <linearGradient id="Áåçûìÿííûé_ãðàäèåíò_8-4" x1="222.27" y1="215.12" x2="224.16" y2="209.69"
                        xlink:href="#Áåçûìÿííûé_ãðàäèåíò_8"/>
        <linearGradient id="Áåçûìÿííûé_ãðàäèåíò_8-5" x1="192.39" y1="246.6" x2="196.17" y2="235.7"
                        xlink:href="#Áåçûìÿííûé_ãðàäèåíò_8"/>
        <radialGradient id="Áåçûìÿííûé_ãðàäèåíò_187" cx="-197.13" cy="173.11" r="14.35"
                        gradientTransform="translate(446.93 141.8) rotate(30)" gradientUnits="userSpaceOnUse">
            <stop offset="0" stop-color="#fc3800"/>
            <stop offset="0.12" stop-color="#d12e00"/>
            <stop offset="0.3" stop-color="#922000"/>
            <stop offset="0.47" stop-color="#5e1500"/>
            <stop offset="0.63" stop-color="#350c00"/>
            <stop offset="0.78" stop-color="#180500"/>
            <stop offset="0.91" stop-color="#060100"/>
            <stop offset="1"/>
        </radialGradient>
        <linearGradient id="Áåçûìÿííûé_ãðàäèåíò_55-2" x1="93.51" y1="280.47" x2="216.85" y2="280.47"
                        xlink:href="#Áåçûìÿííûé_ãðàäèåíò_55"/>
        <linearGradient id="Áåçûìÿííûé_ãðàäèåíò_9-20" x1="293.72" y1="185.74" x2="351.71" y2="179.51"
                        xlink:href="#Áåçûìÿííûé_ãðàäèåíò_9"/>
        <linearGradient id="Áåçûìÿííûé_ãðàäèåíò_55-3" x1="274.83" y1="264.95" x2="271.33" y2="159.69"
                        xlink:href="#Áåçûìÿííûé_ãðàäèåíò_55"/>
        <linearGradient id="Áåçûìÿííûé_ãðàäèåíò_8-6" x1="214.94" y1="112.81" x2="228.28" y2="112.81"
                        xlink:href="#Áåçûìÿííûé_ãðàäèåíò_8"/>
        <linearGradient id="Áåçûìÿííûé_ãðàäèåíò_8-7" x1="316.13" y1="224.64" x2="307.74" y2="207.2"
                        xlink:href="#Áåçûìÿííûé_ãðàäèåíò_8"/>
        <linearGradient id="Áåçûìÿííûé_ãðàäèåíò_8-8" x1="267.49" y1="194.89" x2="259.09" y2="177.44"
                        xlink:href="#Áåçûìÿííûé_ãðàäèåíò_8"/>
        <linearGradient id="Áåçûìÿííûé_ãðàäèåíò_55-4" x1="108.15" y1="-1056.5" x2="108.17" y2="-1060.35"
                        gradientTransform="translate(-426.43 835.08) rotate(32.64)"
                        xlink:href="#Áåçûìÿííûé_ãðàäèåíò_55"/>
        <linearGradient id="Áåçûìÿííûé_ãðàäèåíò_55-5" x1="-5052.01" y1="1070.03" x2="-5051.99" y2="1067.77"
                        gradientTransform="translate(-2260.76 -905.08) rotate(-147.36) scale(0.52)"
                        xlink:href="#Áåçûìÿííûé_ãðàäèåíò_55"/>
        <linearGradient id="Áåçûìÿííûé_ãðàäèåíò_55-6" x1="-101.09" y1="856.05" x2="-101.07" y2="853.22"
                        gradientTransform="matrix(0.9, -0.44, 0.44, 0.9, -36.53, -744.35)"
                        xlink:href="#Áåçûìÿííûé_ãðàäèåíò_55"/>
        <linearGradient id="Áåçûìÿííûé_ãðàäèåíò_55-7" x1="-473.33" y1="-1824.25" x2="-473.29" y2="-1830.81"
                        gradientTransform="translate(-1176.81 1286.86) rotate(63.21)"
                        xlink:href="#Áåçûìÿííûé_ãðàäèåíò_55"/>
        <linearGradient id="Áåçûìÿííûé_ãðàäèåíò_55-8" x1="-465.92" y1="-1815.38" x2="-465.9" y2="-1818.44"
                        gradientTransform="translate(-1176.81 1286.86) rotate(63.21)"
                        xlink:href="#Áåçûìÿííûé_ãðàäèåíò_55"/>
        <linearGradient id="Áåçûìÿííûé_ãðàäèåíò_55-9" x1="112.77" y1="-1053.23" x2="112.78" y2="-1054.99"
                        gradientTransform="translate(-426.43 835.08) rotate(32.64)"
                        xlink:href="#Áåçûìÿííûé_ãðàäèåíò_55"/>
        <linearGradient id="Áåçûìÿííûé_ãðàäèåíò_55-10" x1="140.57" y1="-1023.19" x2="140.57" y2="-1024.57"
                        gradientTransform="translate(-426.43 835.08) rotate(32.64)"
                        xlink:href="#Áåçûìÿííûé_ãðàäèåíò_55"/>
        <linearGradient id="Áåçûìÿííûé_ãðàäèåíò_55-11" x1="120.29" y1="-1035.16" x2="120.31" y2="-1038.64"
                        gradientTransform="translate(-426.43 835.08) rotate(32.64)"
                        xlink:href="#Áåçûìÿííûé_ãðàäèåíò_55"/>
        <linearGradient id="Áåçûìÿííûé_ãðàäèåíò_9-21" x1="370.77" y1="221.28" x2="388.2" y2="219.41"
                        xlink:href="#Áåçûìÿííûé_ãðàäèåíò_9"/>
        <linearGradient id="Áåçûìÿííûé_ãðàäèåíò_55-12" x1="169.29" y1="218.31" x2="168.4" y2="235.21"
                        xlink:href="#Áåçûìÿííûé_ãðàäèåíò_55"/>
        <linearGradient id="Áåçûìÿííûé_ãðàäèåíò_9-22" x1="314.32" y1="155.55" x2="312.95" y2="181.55"
                        xlink:href="#Áåçûìÿííûé_ãðàäèåíò_9"/>
        <linearGradient id="Áåçûìÿííûé_ãðàäèåíò_9-23" x1="213.38" y1="336.72" x2="245.03" y2="270.97"
                        xlink:href="#Áåçûìÿííûé_ãðàäèåíò_9"/>
        <linearGradient id="Áåçûìÿííûé_ãðàäèåíò_9-24" x1="290.2" y1="300.51" x2="310.01" y2="259.36"
                        xlink:href="#Áåçûìÿííûé_ãðàäèåíò_9"/>
        <linearGradient id="Áåçûìÿííûé_ãðàäèåíò_9-25" x1="267.81" y1="251.48" x2="235.73" y2="278.19"
                        xlink:href="#Áåçûìÿííûé_ãðàäèåíò_9"/>
        <linearGradient id="Áåçûìÿííûé_ãðàäèåíò_9-26" x1="123.89" y1="739.59" x2="347.44" y2="-708.28"
                        xlink:href="#Áåçûìÿííûé_ãðàäèåíò_9"/>
        <linearGradient id="Áåçûìÿííûé_ãðàäèåíò_9-27" x1="292.3" y1="650.99" x2="492.43" y2="-645.23"
                        xlink:href="#Áåçûìÿííûé_ãðàäèåíò_9"/>
        <linearGradient id="Áåçûìÿííûé_ãðàäèåíò_11-5" x1="297.38" y1="359.17" x2="309.84" y2="314.71"
                        xlink:href="#Áåçûìÿííûé_ãðàäèåíò_11"/>
        <linearGradient id="Áåçûìÿííûé_ãðàäèåíò_10-8" x1="300.73" y1="429.26" x2="318.18" y2="256.65"
                        xlink:href="#Áåçûìÿííûé_ãðàäèåíò_10"/>
        <linearGradient id="Áåçûìÿííûé_ãðàäèåíò_9-28" x1="308.89" y1="362.38" x2="321.34" y2="317.96"
                        xlink:href="#Áåçûìÿííûé_ãðàäèåíò_9"/>
        <linearGradient id="Áåçûìÿííûé_ãðàäèåíò_55-13" x1="280.88" y1="287.73" x2="295.5" y2="409.99"
                        xlink:href="#Áåçûìÿííûé_ãðàäèåíò_55"/>
        <linearGradient id="Áåçûìÿííûé_ãðàäèåíò_8-9" x1="286.8" y1="354.58" x2="285.88" y2="341.63"
                        xlink:href="#Áåçûìÿííûé_ãðàäèåíò_8"/>
        <linearGradient id="Áåçûìÿííûé_ãðàäèåíò_8-10" x1="289.16" y1="380.86" x2="287.48" y2="356.94"
                        xlink:href="#Áåçûìÿííûé_ãðàäèåíò_8"/>
        <linearGradient id="Áåçûìÿííûé_ãðàäèåíò_8-11" x1="304.07" y1="325.62" x2="303.36" y2="315.58"
                        xlink:href="#Áåçûìÿííûé_ãðàäèåíò_8"/>
        <linearGradient id="Áåçûìÿííûé_ãðàäèåíò_8-12" x1="295.27" y1="383.95" x2="294.89" y2="378.55"
                        xlink:href="#Áåçûìÿííûé_ãðàäèåíò_8"/>
        <linearGradient id="Áåçûìÿííûé_ãðàäèåíò_8-13" x1="304.39" y1="355.08" x2="303.21" y2="338.35"
                        xlink:href="#Áåçûìÿííûé_ãðàäèåíò_8"/>
        <linearGradient id="Áåçûìÿííûé_ãðàäèåíò_8-14" x1="297.45" y1="320.68" x2="295.95" y2="299.51"
                        xlink:href="#Áåçûìÿííûé_ãðàäèåíò_8"/>
        <linearGradient id="Áåçûìÿííûé_ãðàäèåíò_9-29" x1="287.72" y1="363.8" x2="286.88" y2="351.85"
                        xlink:href="#Áåçûìÿííûé_ãðàäèåíò_9"/>
        <radialGradient id="Áåçûìÿííûé_ãðàäèåíò_187-2" cx="-43.9" cy="220.68" r="26.06"
                        gradientTransform="matrix(0.71, 0.71, -0.71, 0.71, 485.46, 185.66)"
                        xlink:href="#Áåçûìÿííûé_ãðàäèåíò_187"/>
        <linearGradient id="Áåçûìÿííûé_ãðàäèåíò_11-6" x1="5.28" y1="318.46" x2="54.51" y2="340.48"
                        xlink:href="#Áåçûìÿííûé_ãðàäèåíò_11"/>
        <linearGradient id="Áåçûìÿííûé_ãðàäèåíò_10-9" x1="147.09" y1="331.82" x2="159.29" y2="299.63"
                        xlink:href="#Áåçûìÿííûé_ãðàäèåíò_10"/>
        <linearGradient id="Áåçûìÿííûé_ãðàäèåíò_11-7" x1="191.55" y1="316.23" x2="270.9" y2="326.2"
                        xlink:href="#Áåçûìÿííûé_ãðàäèåíò_11"/>
    </defs>
    <g class="cls-1">
        <g id="Ebene_2" data-name="Ebene 2">
            <g id="Ebene_1-2" data-name="Ebene 1">
                <path class="cls-2"
                      d="M401.56,296.38l0,0-30.78,55.86-55.05,9.55-33.75,35.89-13.56,14.41s-14.49,7.8-16.76,8.48-16.38,44.49-16.38,44.49l-35.92-2.61-6.45-9.95-2.08-5.31-69.31-18-52-13.5-3.38-12.11-1.12,0-7.12-.22L43.72,372.68l-2-4.32-8.18-26.5L149,297.19h.17l5.37,0h0l158-.27h.38l3.05,0,80-.44Z"/>
                <polygon class="cls-3"
                         points="148.97 297.19 147.76 300.26 141.43 339.49 138.27 359.1 41.72 368.36 33.54 341.86 148.97 297.19"/>
                <polygon class="cls-3"
                         points="111.75 375.77 109.56 397.72 66.63 402.42 57.89 403.37 43.72 372.68 111.75 375.77"/>
                <polygon class="cls-3"
                         points="312.76 296.8 312.76 296.83 312.76 296.88 289.77 359.29 289.52 359.48 236.45 402.13 155.91 386.65 154.54 297.15 154.52 296.98 154.51 296.94 154.52 296.94 312.76 296.8"/>
                <polygon class="cls-3"
                         points="316.07 296.23 315.98 296.79 312.94 296.8 312.9 296.8 312.94 296.79 315.56 296.23 316.07 296.23"/>
                <polygon class="cls-3"
                         points="401.56 296.38 401.52 296.42 370.74 352.28 293.77 359.42 315.97 296.85 315.98 296.79 395.22 296.4 401.56 296.38"/>
                <polygon class="cls-3" points="113.93 418.11 118.57 365.25 149.65 362.71 155.15 419.38 113.93 418.11"/>
                <polygon class="cls-3"
                         points="157.75 399.96 160.06 389.78 178.16 394.71 171.87 404.15 184.67 406.67 181.65 395.2 235.88 403.88 238.12 420.45 157.75 399.96"/>
                <polygon class="cls-3"
                         points="282.33 397.81 268.38 412.13 239.86 404.49 263.95 393.74 281.94 397.72 282.33 397.81"/>
                <polygon class="cls-4"
                         points="154.52 296.94 154.52 296.98 154.5 297.14 149.66 362.7 149.65 362.7 42.28 369.3 41.72 368.36 137.95 358.59 141.43 339.49 149.14 297.19 149.19 296.94 154.52 296.94"/>
                <polygon class="cls-5"
                         points="115.29 398.64 67.55 406.67 69.51 415.73 66.13 403.62 65.01 403.59 66.63 402.42 66.67 402.39 109.56 397.72 111.75 375.77 116.65 378.93 115.29 398.64"/>
                <polygon class="cls-6"
                         points="192.87 452.54 190.79 447.23 121.48 429.23 113.95 418.1 113.94 418.1 155.15 419.37 155.16 419.37 152.93 396.41 151.77 384.5 149.66 362.82 154.56 392.67 159.11 420.5 188.73 441.17 192.87 452.54"/>
                <path class="cls-7"
                      d="M401.52,296.42l-30.78,55.86-55.05,9.55-33.75,35.89.39.09-13.95,14.32s-14.49,7.8-16.76,8.48-16.38,44.49-16.38,44.49l-35.92-2.61-6.45-9.95,38.59,5.7,2.25-24.43L170.5,408.35,157.77,400l0,0,14.51,3.61h0l12.39,3.07,53.23,13.22h.18l-1.62-17.73,53.07-42.65.25-.2,22.77-62.4.23-.05.13,0h0l2.62-.56h.51l79.15.18h6.3Z"/>
                <polygon class="cls-8" points="235.24 465.1 199.32 462.49 192.87 452.54 231.46 458.24 235.24 465.1"/>
                <path class="cls-9"
                      d="M401.56,296.38l0,0-30.78,55.86-55.05,9.55-33.75,35.89.39.09-13.95,14.32s-14.49,7.8-16.76,8.48-16.38,44.49-16.38,44.49l-35.92-2.61-6.45-9.95-2.08-5.31-69.31-18-52-13.5-3.38-12.11-1.12,0-7.12-.22L43.72,372.68l68,3.1,4.9,3.15-1.06,20.23v.22L115,410.55l37.91-14.14h0l.86-.33.77-3.41,1.35-6,104.15-4.28L280,367l-80.81-6.18,90.3-1.33h0l4.23-.07,19.15-62.54,0-.07h0l2.62-.56h.51l79.15.18Z"/>
                <path class="cls-10"
                      d="M401.56,296.38l0,0-30.78,55.86-55.05,9.55-33.75,35.89.39.09-13.95,14.32s-14.49,7.8-16.76,8.48-16.38,44.49-16.38,44.49l-35.92-2.61-6.45-9.95-2.08-5.31-69.31-18-52-13.5-3.38-12.11-1.12,0-7.12-.22L43.72,372.68l-2-4.32-8.18-26.5L149,297.19h.17l0-.25h5.34l158.25-.14v0l.13,0h0l2.62-.56h.51l79.15.18Z"/>
                <polygon class="cls-11"
                         points="78.15 343.54 140.05 345.61 137.14 358.91 149.19 362.65 201.95 361.81 253.46 350.18 262.6 338.97 289.76 359.29 370.74 352.28 395.54 308.64 403.43 294.51 230.62 300.33 78.15 343.54"/>
                <path class="cls-12"
                      d="M395.09,251.46,70.6,305.78l29.15-64.64,18.16-3.74h0l20,1.72,10.8-19.94,10-.69L177,180.94l-.21.08.4-.77c21.89-43.26,23-64.33,23-64.33L212.81,74.4l42.94-2.92,9,16.91s17.2,68.82,71.26,69.43l3.74,8,43.79,9.62,10.68,70.18Z"/>
                <polygon class="cls-13" points="209.99 233.84 206.86 244.53 182.49 244.4 180.27 236.97 209.99 233.84"/>
                <polygon class="cls-14"
                         points="363.95 182.44 308.71 202.17 343.9 208.63 209.99 233.84 180.27 236.97 285.45 208.23 281.54 205.04 342.1 180.49 342.14 180.47 339.73 165.83 383.52 175.45 363.95 182.44"/>
                <polygon class="cls-15"
                         points="99.75 241.13 112.24 244.01 236.57 246.35 243.22 245.57 117.91 237.4 99.75 241.13"/>
                <polygon class="cls-16"
                         points="200.15 115.91 221.72 115.76 259.06 81.09 255.75 71.48 212.8 74.4 200.15 115.91"/>
                <polygon class="cls-17"
                         points="218.39 80.96 209.01 113.02 220.94 110.68 255.93 81.16 254.76 77.44 218.39 80.96"/>
                <path class="cls-18" d="M336,157.82a58.49,58.49,0,0,1-8.3-.66Z"/>
                <path class="cls-19"
                      d="M383.52,175.45l-43.79-9.62-3.74-8,3,6.69-51.09,14.33,12.62-15.6s-7.09-4-16.93-9.56l44.07,3.48c-47.54-7.06-63-68.77-63-68.77l-9-16.91,3.31,9.61-37.34,34.67c1.36,44.77,35.77,71,35.77,71l15.05,8.53,8.08,9.65,60.48-24.5,1,.09L364,182.44l.61.05-55.85,19.68,35.19,6.46,13.49,39.29,36.81-2.29Zm-115.65,1.36L248.2,161.3l-11.08-22.16.83-6.2.65-4.85,2.4-18,10.21,25.22,6.61,16.35,3.12,7.72-8.59.28,18.84,15.79Z"/>
                <polygon class="cls-20" points="90.34 296.79 112.24 244.01 233.71 246.35 225.37 277.89 90.34 296.79"/>
                <path class="cls-21" d="M184.5,232.75c1.39-1.66,19.39-30.74,19.39-30.74l19.66,8.59-.83,15L189.21,235Z"/>
                <path class="cls-22"
                      d="M434,242.45h0v.13l-.05.29,0,.26-.25,1.76-.14,1-.43,2.94-.53,3.73-.31,2.15-.52,3.55-.32,2.25-2.45,17-20.6,23.25-.54.61L292,302.91h-.66l-22.9-7.76-.18-.06-8.09,2.56-.11,0-.91,2.77,0,.08,0,.1-3.19,9.81-3.66,11.22-6.95,1.7-19.33,4.73h0l-3.75.92h0l-3.09.76-1.17-38.14-.24-7.95h0v-.44l0-1.36-.39-12.61h0l-.12-4.34-.26-8.08-.17-5.73h0l67.83-2.71,23.19-.93h.09Z"/>
                <polygon class="cls-23"
                         points="265.04 264.94 259.72 280.74 259.72 280.75 259.63 280.9 259.28 281.94 259.28 281.95 251.54 304.81 251.04 306.32 245.27 323.38 225.94 328.11 225.93 328.11 222.18 329.03 222.17 329.03 219.08 329.79 205.74 333.04 205.29 333.16 169.34 332.01 169.33 332.01 165.3 331.88 139.6 331.06 139 331.48 130.39 337.38 125.72 300.77 125.52 299.26 125.44 298.56 124.16 288.5 124.16 288.49 123.94 286.7 123.64 284.48 123.64 284.46 123.2 281.02 122.99 279.42 121.15 264.94 265.04 264.94"/>
                <path class="cls-24"
                      d="M265,280.6l-4.21,14.71-.67,2.35-.11,0-.91,2.77,0,.08,0,.1-3.19,9.81-3.66,11.22-6.95,1.7-19.33,4.73h0l-3.75.92h0l-3.09.76L205.74,333l-.45.12L169.34,332h0l-4-.13-25.69-.81-.61.41-8.61,5.9-17.26,11.83-1.24.85-.43.29-92.28-2.08v.23l-.3-.8L0,295.46H0l42.15-2.36h0l2.37-.14h0l79.59-4.46h0l45.8-2.57,1.62-.1,10.2-.57H182l17.32-1h0l8.37-.46,9.9-.56,9.91-.55,32.06-1.8h0l5.17-.29Z"/>
                <polygon class="cls-25"
                         points="433.92 243.13 433.67 244.89 433.52 245.9 433.1 248.84 432.56 252.57 432.26 254.72 431.74 258.27 431.42 260.52 428.97 277.49 408.37 300.74 412.99 278.36 413.25 277.09 418.12 253.53 418.64 251 431.9 244.17 431.91 244.17 433.92 243.13"/>
                <polygon class="cls-26" points="359.97 258.84 412.99 278.35 413.25 277.09 367.65 258.84 359.97 258.84"/>
                <polygon class="cls-27"
                         points="264.14 242.45 434.02 242.45 420.66 253.29 293.28 264.94 216.67 251.13 264.14 242.45"/>
                <polygon class="cls-28" points="276.5 261.92 317.08 262.77 289.48 270.14 276.5 261.92"/>
                <polygon class="cls-29"
                         points="139 331.48 130.39 337.38 113.13 349.21 111.89 350.06 111.94 349.1 112.65 337.73 114.9 301.39 114.96 300.32 125.44 298.56 137.97 296.46 139 331.48"/>
                <polygon class="cls-30"
                         points="162.37 258.01 197.99 253.69 265.03 264.94 207.76 270.14 121.17 264.94 162.37 258.01"/>
                <polygon class="cls-31" points="207.76 270.14 207.76 285.61 123.63 284.47 121.17 264.94 207.76 270.14"/>
                <polygon class="cls-32"
                         points="0.01 295.45 65.48 286.06 265.03 280.6 201.65 295.45 137.97 296.45 115.82 301.44 0.01 295.45"/>
                <polygon class="cls-33"
                         points="13.76 333.57 55.17 297.79 34.88 290.45 37.31 290.1 57.55 298.07 17.01 335.02 13.76 333.57"/>
                <polygon class="cls-34"
                         points="174.8 283.07 172.4 285.13 172.39 285.14 171.59 285.83 153.96 295.88 154.09 296.2 169.33 332.01 165.3 331.88 149.1 296.29 149.05 296.18 169.97 285.93 170.97 285.19 170.98 285.19 171.07 285.12 171.08 285.12 171.1 285.11 173.83 283.1 173.84 283.09 173.86 283.09 174.8 283.07"/>
                <polygon class="cls-35"
                         points="257.32 303.19 257.32 304.56 251.04 306.32 231.5 311.77 225.94 328.11 225.93 328.11 222.18 329.03 229.87 310.95 251.54 304.81 257.32 303.19"/>
                <polygon class="cls-36"
                         points="363.96 250.75 382.95 251.12 382.95 249.93 380.37 246.9 368.34 247.56 363.96 250.75"/>
                <path class="cls-37" d="M406.52,251.49c-.82-.08-6.62,0-6.62,0v-1.23l4.93-.74Z"/>
                <polygon class="cls-38" points="285.53 246.94 283.64 249.75 340 253.69 328.52 246.88 285.53 246.94"/>
                <polygon class="cls-39" points="274.39 248.47 265.03 247.6 267.22 246.94 280.62 246.94 274.39 248.47"/>
                <path class="cls-40" d="M225.89,223.94c0-1.05,1.82-7.56,1.82-7.56l44.84-21.12,12.25,13Z"/>
                <path class="cls-41"
                      d="M205.62,105.62c.26,6.64,16.1,10.14,16.1,10.14l11.85-16,22.36-18.64-1.17-3.72L218.39,81,213.48,97S205.18,94.56,205.62,105.62Z"/>
                <polygon class="cls-42" points="222.31 208.94 272.3 195.21 284.8 208.3 227.75 223.25 222.31 208.94"/>
                <path class="cls-43"
                      d="M225.78,214.71a65.37,65.37,0,0,1,2,8.54L199.44,235.4h-.07l-.15.07v7h-9.33l1-7.2s30.9-10.27,31.55-11.14c.46-.62.18-7.22,0-11.27-.1-1.83-.19-3.15-.19-3.15s-18.89-7.49-31.36-13.38c-5.83-2.77-10.26-5.17-10.69-6.28-.15-.41,0-.87.52-1.38,3.54-3.77,22.49-9.62,24.59-10.2,2.42-.65,11.14-59.39,10.71-60.27s-10.26,1.1-11.13,1.1-15.3,34.5-15.3,34.5L177,181c.86-2.4,10-27.84,10-28.88s-1.53-7.65.87-10.27,5.9-4.37,6.11-5.45,4.8-22.94,4.8-22.94l8.3-9.17s3.51-6.33,7-6.33a18,18,0,0,1,5.52.72l7,.58,7,.58-11.86,16s-9.68,62.64-11.42,64.39-11.07,8.74-13.4,11.07,20.38,16.88,24.45,16.88C223.2,208.11,224.71,211.28,225.78,214.71Z"/>
                <path class="cls-44"
                      d="M193.75,136.78c2.08,5-6.55,15.72-6.77,15.28s-1.31-6.33-.32-9.39S193.75,136.78,193.75,136.78Z"/>
                <path class="cls-45"
                      d="M200.64,196.17a43.57,43.57,0,0,0-9.74.17c-5.83-2.77-10.26-5.17-10.69-6.28-.15-.41,0-.87.52-1.38,4.55-2.48,16.16,2.55,16.16,2.55l-.41.25a7.76,7.76,0,0,0,1,1.75A30.76,30.76,0,0,0,200.64,196.17Z"/>
                <path class="cls-46"
                      d="M225.78,214.71a3.15,3.15,0,0,0-3.33-1.84c-.1-1.83-.19-3.15-.19-3.15l-.92-1.61C223.2,208.11,224.71,211.28,225.78,214.71Z"/>
                <path class="cls-47" d="M199.37,235.41l-.15.07v7h-9.33l1-7.2C193,236.87,198.12,235.72,199.37,235.41Z"/>
                <path class="cls-48" d="M202.1,200.32a14.35,14.35,0,1,1-5.26-19.6A14.36,14.36,0,0,1,202.1,200.32Z"/>
                <polygon class="cls-49"
                         points="213.42 280.69 216.85 282.06 206.49 282.37 93.51 285.57 121.76 275.38 213.42 280.69"/>
                <polygon class="cls-50" points="286.57 202.88 287.93 178.84 339.02 164.51 342.1 180.49 286.57 202.88"/>
                <path class="cls-51"
                      d="M324.85,223.08c-.44,8.81-1.59,19.69-1.59,19.69l-17.47-.58-4.91-19.4L299.67,218l.14-.3c.66-1.47,3.25-8.26-4.5-11.35-8.74-3.49-13.77-1.34-13.77-1.34l-9-9.77-.25,0c-1.37-.29-8-2-17-9.24-5.83-4.7-12.64-11.77-19.6-22.34-19-28.82-17.26-38.42-17.26-38.42L224.69,104c-.58,13.1,1.32,45.86,13,61.58,8.6,11.63,16.28,17.38,19.67,19.57,1.2.77,1.86,1.11,1.86,1.11l15.11,6.35,1.49.63,12.52,8.45S319.84,210.54,324,212h0l.34.13C325.16,212.46,325.16,217.31,324.85,223.08Z"/>
                <path class="cls-52"
                      d="M223.67,123.67c-10.26-2.18,2.19-8.73-.22-15.28s-8.51-4.15-8.51-4.15,7-6.6,11.79,2.62S223.67,123.67,223.67,123.67Z"/>
                <path class="cls-53"
                      d="M324.85,223.08c-4.31-2.93-12-5.34-24-.29L299.67,218l.14-.3A245.4,245.4,0,0,0,324,212h0l.34.13C325.16,212.46,325.16,217.31,324.85,223.08Z"/>
                <path class="cls-54" d="M257.33,185.17l-2,.8c9,7.27,15.64,8.95,17,9.24a13.14,13.14,0,0,0,2-2.58Z"/>
                <path class="cls-55"
                      d="M237.83,84.55c-1.1-.75,7.25-16.92.86-20.62-.9-3.73-1.53-9.32,2.53-12a10.11,10.11,0,0,1,2-1.23c1.3,4,2.38,8.21,2.25,11.09C245.33,64,239.57,83.48,237.83,84.55Z"/>
                <path class="cls-56"
                      d="M235.39,4.36a3.82,3.82,0,0,0-1.08-.69C234.14,2.6,234,1,235.19.35a2,2,0,0,1,.55-.35,9.32,9.32,0,0,1,.51,3.12A1.5,1.5,0,0,1,235.39,4.36Z"/>
                <path class="cls-57"
                      d="M234.59,36.83c.07-.11.12-.08.24.09a2.44,2.44,0,0,0,.08.57c-.07.38-.2.8-.48.48a.42.42,0,0,0-.1-.15A3,3,0,0,1,234.59,36.83Z"/>
                <path class="cls-58"
                      d="M252.46,64.84a11.36,11.36,0,0,1,.29,1.34c-.37,1-1,2.4-2,2a2.05,2.05,0,0,1-.48-.09,10.72,10.72,0,0,1,1.21-2.93A.7.7,0,0,1,252.46,64.84Z"/>
                <path class="cls-59"
                      d="M240.25,45.88c-.25.12.58-7.93.53-8.39a5.43,5.43,0,0,0,.45-1.13c.54-.61,1.21-1.23,1.39-.35a1,1,0,0,0,0,.41C242.1,37.1,240.64,45.68,240.25,45.88Z"/>
                <path class="cls-60"
                      d="M237.11,53.2a11.67,11.67,0,0,1-1.45.31c-1.1-.41-2.63-1.16-2.26-2.18a3.42,3.42,0,0,1,.09-.53,12.15,12.15,0,0,1,3.22,1.35A.8.8,0,0,1,237.11,53.2Z"/>
                <path class="cls-61"
                      d="M237.12,9.15c-.11.17-.19.13-.38-.13a3.42,3.42,0,0,0-.12-.86c.11-.58.31-1.2.73-.73a.78.78,0,0,0,.15.24A4.57,4.57,0,0,1,237.12,9.15Z"/>
                <path class="cls-62"
                      d="M245.11,48.66a5.22,5.22,0,0,1-.48.46c-.52.1-1.27.17-1.35-.31a1.19,1.19,0,0,1-.08-.22,5.46,5.46,0,0,1,1.53-.24A.34.34,0,0,1,245.11,48.66Z"/>
                <path class="cls-63"
                      d="M234.18,28.61c-.39.1-.63.07-.72-.42a16.89,16.89,0,0,1,.33-3,.94.94,0,0,0,.43-.16c.89-.25.87,1.22.73,2.26A14.21,14.21,0,0,0,234.18,28.61Z"/>
                <path class="cls-55"
                      d="M247,77.77l-2.57-1.64c-.27-.61,4.71-3.75,5.52-3.67,1.13.08-1.72,3.49.45,4.22a3.22,3.22,0,0,0,.34.7C251.34,78.87,248.78,78.33,247,77.77Z"/>
                <path class="cls-55"
                      d="M226.73,76.74c-1.11-.73-2,6.21-3.4,5.39-1.81-2.32-4.29-13.33-1.73-13.62a4.23,4.23,0,0,1,1.25-.11,39.06,39.06,0,0,1,5,6.77C228.39,76.31,227.85,76.65,226.73,76.74Z"/>
                <path class="cls-55"
                      d="M234.62,82.25c-.39.1-.63.07-.72-.42a16.89,16.89,0,0,1,.33-3,.94.94,0,0,0,.43-.16c.89-.25.87,1.22.73,2.26A14.21,14.21,0,0,0,234.62,82.25Z"/>
                <path class="cls-55"
                      d="M233.69,69.48l1.72,5.4c-.71.44-4.52-1.48-4.55-2.5a34.27,34.27,0,0,1,.9-6.94,4.45,4.45,0,0,0,.82-.54C234.33,63.87,234.07,67.13,233.69,69.48Z"/>
                <polygon class="cls-64"
                         points="370.34 242.45 367.01 198.41 374.77 233.31 387.23 238.02 387.79 242.72 370.34 242.45"/>
                <polygon class="cls-65" points="186.16 235.25 148.77 219.18 158.75 218.49 188.93 234.14 186.16 235.25"/>
                <polygon class="cls-66" points="287.93 178.84 300.55 163.24 335.99 157.82 339.02 164.51 287.93 178.84"/>
                <polygon class="cls-67" points="205.74 333.04 201.65 295.45 265.03 280.6 252.22 321.68 205.74 333.04"/>
                <polygon class="cls-68" points="317.08 262.77 304.7 302.27 295.01 302.82 289.48 270.14 317.08 262.77"/>
                <polygon class="cls-69"
                         points="216.67 251.13 218.36 257.33 263.99 265.16 259.72 280.74 265.03 280.6 260.58 295.32 267.03 295.07 276.5 261.92 216.67 251.13"/>
                <polygon class="cls-70"
                         points="260.82 295.31 268.24 295.1 260.15 297.66 260.04 297.7 259.13 300.47 259.1 300.55 259.07 300.65 255.88 310.46 252.22 321.68 245.27 323.38 225.94 328.11 225.93 328.11 222.18 329.03 222.17 329.03 219.08 329.79 205.74 333.04 201.65 295.45 167.47 295.97 170.93 331.35 165.3 331.88 139.6 331.06 139 331.48 130.39 337.38 113.13 349.21 111.94 349.1 111.66 349.08 112.65 337.73 115.82 301.44 125.52 299.26 137.97 296.46 149.1 296.29 154.09 296.2 201.66 295.46 217.91 291.65 259.28 281.95 265.03 280.6 260.58 295.32 260.82 295.31"/>
                <polygon class="cls-71"
                         points="434.02 242.44 434 242.53 434 242.57 433.96 242.87 433.92 243.13 433.67 244.89 433.52 245.9 433.1 248.84 432.56 252.57 432.26 254.72 431.74 258.27 431.42 260.52 428.97 277.49 408.37 300.74 407.83 301.36 291.98 302.91 291.32 302.92 268.42 295.15 268.24 295.1 295.01 302.83 289.48 270.14 317.08 262.77 359.98 258.84 360.03 258.84 418.12 253.53 420.66 253.29 431.9 244.17 434.01 242.45 434.01 242.44 434.02 242.44"/>
                <polygon class="cls-72"
                         points="382.66 292.44 380.97 294.58 376.43 300.33 346.52 313.21 345.27 319.03 314.53 344.78 267.59 330.65 249.72 322.35 244.74 309.47 344.7 297.12 381 292.64 382.66 292.44"/>
                <polygon class="cls-73"
                         points="244.74 309.47 269.25 314.46 316.61 307.81 346.1 296.59 382.66 292.44 258.98 295.42 254.71 307.81 244.74 309.47"/>
                <path class="cls-74"
                      d="M381,292v.62l0,1.94-4.54,5.75-29.91,12.88L345.27,319l-30.74,25.75-46.94-14.12c1.24-.83,1.66-16.2,1.66-16.2l47.36-6.65,28.09-10.69,1.4-.53Z"/>
                <path class="cls-75"
                      d="M302.85,326.76a6.14,6.14,0,0,1,.67,1c1,1.79.84,9.44.23,18.52-.23,3.43-.53,7.08-.86,10.68-1.26,13.43-3,26.36-3.52,26.47-.71.14-1.22.38-3.48-1.87-.33-.33-.68-.7-1.09-1.14-.93-1-2.08-2.33-3.53-4.05a11,11,0,0,1-1.78-3.58,42.55,42.55,0,0,1-1.61-7.68v-.05c-.21-3.7-.45-6.81-.76-9.12-.14-3.26-.16-6.64-.09-9.94h0c.29-11.91,1.93-22.82,4.45-23.63,0,0,5.95.26,9.72,2.91A7.4,7.4,0,0,1,302.85,326.76Zm4.86-20.65-49.95-6.89-2.08,4.16s22.54,3.81,27.13,4.89a5.36,5.36,0,0,1,.76.19c.38.11.64,6.08.82,15.37.7,34.1.92,161.94.92,161.94,3.65-.58,3.71-9.84,3.71-9.84s-4.72-87.11-1.67-91.24a8.47,8.47,0,0,1,1.1-1.26,3.49,3.49,0,0,1,1.4-.87,1.92,1.92,0,0,1,1.08-.06,3.25,3.25,0,0,1,3.5.81h0a7.92,7.92,0,0,1,1.07,1.2c3.4,4.52,5.27,14.56,5.17,16.63-.12,2.49-1,17.73,0,21.78,1.9-.69.89-7.13,1.11-7.67a7.36,7.36,0,0,0,.2-1l2.81-60.2.45-10.12,0,0,1.07-23.42.09-1.69,3.69-9.52.12-2.45Z"/>
                <path class="cls-76"
                      d="M287.12,355.93c-.3-2.24-.65-3.73-1.07-4.23-.79-1-.31-3,1-5.71C287,349.29,287,352.67,287.12,355.93Z"/>
                <path class="cls-77"
                      d="M289.49,372.78c.1,3.07.22,6.37.36,9.78a3.49,3.49,0,0,0-1.4.87c-.11-6.8-.3-13.13-.57-18.33A42.55,42.55,0,0,0,289.49,372.78Z"/>
                <path class="cls-78"
                      d="M306.43,318.81l-.09,1.69c-1.14,2.05-2.32,4.15-3.49,6.26a7.4,7.4,0,0,0-1.65-1.5C303.17,322.78,305,320.55,306.43,318.81Z"/>
                <path class="cls-79"
                      d="M295.89,381.55c-.13,1-.26,2-.38,3a7.92,7.92,0,0,0-1.07-1.2c.11-1,.24-2,.36-2.9C295.21,380.85,295.56,381.22,295.89,381.55Z"/>
                <path class="cls-80"
                      d="M305.24,343.94l-.45,10.12a24.47,24.47,0,0,0-1.9,2.89c.33-3.6.63-7.25.86-10.68A22.34,22.34,0,0,1,305.24,343.94Z"/>
                <path class="cls-81"
                      d="M310.24,306.84l-.12,2.45c-6.18,3.91-17.17-.08-22.32,7a28.93,28.93,0,0,0-3.41,7.51c-.18-9.29-.44-15.26-.82-15.37a4.9,4.9,0,0,0-.77-.19c7-3,18.54,2.8,24.91-2.17Z"/>
                <path class="cls-82"
                      d="M287.88,365.05c-.38-2.8-.62-5.91-.76-9.12C287.43,358.24,287.67,361.35,287.88,365.05Z"/>
                <circle class="cls-83" cx="298.58" cy="310.96" r="26.06"
                        transform="translate(-69.94 87.27) rotate(-14.91)"/>
                <polygon class="cls-84" points="15.01 335.23 34.32 319.03 31.42 327.96 15.01 335.23"/>
                <polygon class="cls-85" points="156.25 301.68 167.47 295.97 153.97 295.76 156.25 301.68"/>
                <polygon class="cls-86" points="222.18 329.03 229.87 310.95 219.08 329.79 222.18 329.03"/>
            </g>
        </g>
    </g>
</svg>
